<svg width="1550" height="1200" viewBox="0 0 1550 1200" fill="none" xmlns="http://www.w3.org/2000/svg">
<rect x="1" y="1" width="1548" height="1198" rx="14" fill="#6A6A6A"/>
<rect x="1" y="1" width="1548" height="1198" rx="14" stroke="#8A9A5B" stroke-width="2"/>
<g clip-path="url(#clip0_27_103)">
<rect x="208" y="228" width="1133" height="744" rx="10" fill="white"/>
<rect x="208" y="228" width="1133" height="744" fill="black"/>
<rect x="208" y="407" width="145" height="188" fill="white"/>
<path d="M332.887 290.818H345.785L363.058 332.977H363.739L381.012 290.818H393.91V349H383.796V309.028H383.256L367.177 348.83H359.62L343.54 308.943H343.001V349H332.887V290.818ZM411.325 365.364C409.923 365.364 408.626 365.25 407.433 365.023C406.258 364.814 405.321 364.568 404.62 364.284L407.006 356.273C408.503 356.708 409.838 356.917 411.012 356.898C412.186 356.879 413.219 356.509 414.109 355.79C415.018 355.089 415.785 353.915 416.41 352.267L417.29 349.909L401.467 305.364H412.376L422.433 338.318H422.887L432.972 305.364H443.91L426.438 354.284C425.624 356.595 424.544 358.574 423.2 360.222C421.855 361.888 420.207 363.157 418.256 364.028C416.325 364.919 414.014 365.364 411.325 365.364ZM502.944 306.812C502.679 304.331 501.561 302.4 499.592 301.017C497.641 299.634 495.103 298.943 491.978 298.943C489.781 298.943 487.897 299.275 486.325 299.938C484.753 300.6 483.55 301.5 482.717 302.636C481.883 303.773 481.457 305.07 481.438 306.528C481.438 307.741 481.713 308.792 482.262 309.682C482.83 310.572 483.597 311.33 484.563 311.955C485.529 312.561 486.599 313.072 487.773 313.489C488.948 313.905 490.131 314.256 491.325 314.54L496.779 315.903C498.976 316.415 501.088 317.106 503.114 317.977C505.16 318.848 506.987 319.947 508.597 321.273C510.226 322.598 511.514 324.199 512.461 326.074C513.408 327.949 513.881 330.146 513.881 332.665C513.881 336.074 513.01 339.076 511.268 341.67C509.525 344.246 507.006 346.263 503.711 347.722C500.434 349.161 496.467 349.881 491.808 349.881C487.281 349.881 483.351 349.18 480.018 347.778C476.703 346.377 474.109 344.331 472.234 341.642C470.378 338.953 469.374 335.676 469.222 331.812H479.592C479.743 333.839 480.368 335.525 481.467 336.869C482.565 338.214 483.995 339.218 485.756 339.881C487.537 340.544 489.525 340.875 491.722 340.875C494.014 340.875 496.022 340.534 497.745 339.852C499.487 339.152 500.851 338.186 501.836 336.955C502.821 335.705 503.323 334.246 503.342 332.58C503.323 331.064 502.878 329.814 502.006 328.83C501.135 327.826 499.914 326.992 498.342 326.33C496.789 325.648 494.97 325.042 492.887 324.511L486.268 322.807C481.476 321.576 477.688 319.71 474.904 317.21C472.139 314.691 470.756 311.348 470.756 307.182C470.756 303.754 471.684 300.752 473.54 298.176C475.415 295.6 477.963 293.602 481.183 292.182C484.402 290.742 488.048 290.023 492.12 290.023C496.249 290.023 499.866 290.742 502.972 292.182C506.097 293.602 508.55 295.581 510.33 298.119C512.111 300.638 513.029 303.536 513.086 306.812H502.944ZM522.823 349V305.364H532.653V312.778H533.164C534.073 310.278 535.579 308.328 537.681 306.926C539.783 305.506 542.293 304.795 545.21 304.795C548.164 304.795 550.655 305.515 552.681 306.955C554.727 308.375 556.166 310.316 556.999 312.778H557.454C558.42 310.354 560.049 308.422 562.34 306.983C564.651 305.525 567.388 304.795 570.55 304.795C574.566 304.795 577.842 306.064 580.38 308.602C582.918 311.14 584.187 314.843 584.187 319.71V349H573.874V321.301C573.874 318.593 573.155 316.614 571.715 315.364C570.276 314.095 568.514 313.46 566.431 313.46C563.95 313.46 562.009 314.237 560.607 315.79C559.225 317.324 558.533 319.322 558.533 321.784V349H548.448V320.875C548.448 318.621 547.766 316.822 546.403 315.477C545.058 314.133 543.297 313.46 541.119 313.46C539.641 313.46 538.297 313.839 537.085 314.597C535.872 315.335 534.906 316.386 534.187 317.75C533.467 319.095 533.107 320.667 533.107 322.466V349H522.823ZM607.177 349.881C604.412 349.881 601.921 349.388 599.705 348.403C597.508 347.4 595.766 345.922 594.478 343.972C593.209 342.021 592.575 339.616 592.575 336.756C592.575 334.294 593.029 332.258 593.938 330.648C594.847 329.038 596.088 327.75 597.66 326.784C599.232 325.818 601.003 325.089 602.972 324.597C604.961 324.085 607.016 323.716 609.137 323.489C611.694 323.223 613.768 322.987 615.359 322.778C616.95 322.551 618.105 322.21 618.825 321.756C619.563 321.282 619.933 320.553 619.933 319.568V319.398C619.933 317.258 619.298 315.6 618.029 314.426C616.76 313.252 614.933 312.665 612.546 312.665C610.027 312.665 608.029 313.214 606.552 314.312C605.094 315.411 604.109 316.708 603.597 318.205L593.995 316.841C594.753 314.189 596.003 311.973 597.745 310.193C599.487 308.394 601.618 307.049 604.137 306.159C606.656 305.25 609.44 304.795 612.489 304.795C614.592 304.795 616.684 305.042 618.768 305.534C620.851 306.027 622.754 306.841 624.478 307.977C626.201 309.095 627.584 310.619 628.626 312.551C629.686 314.483 630.217 316.898 630.217 319.795V349H620.33V343.006H619.989C619.364 344.218 618.484 345.354 617.347 346.415C616.23 347.456 614.819 348.299 613.114 348.943C611.429 349.568 609.45 349.881 607.177 349.881ZM609.847 342.324C611.912 342.324 613.701 341.917 615.217 341.102C616.732 340.269 617.897 339.17 618.711 337.807C619.544 336.443 619.961 334.956 619.961 333.347V328.205C619.639 328.47 619.09 328.716 618.313 328.943C617.556 329.17 616.703 329.369 615.756 329.54C614.809 329.71 613.872 329.862 612.944 329.994C612.016 330.127 611.211 330.241 610.529 330.335C608.995 330.544 607.622 330.884 606.41 331.358C605.198 331.831 604.241 332.494 603.54 333.347C602.84 334.18 602.489 335.259 602.489 336.585C602.489 338.479 603.181 339.909 604.563 340.875C605.946 341.841 607.707 342.324 609.847 342.324ZM640.558 349V305.364H650.529V312.636H650.984C651.779 310.117 653.143 308.176 655.075 306.812C657.025 305.43 659.251 304.739 661.751 304.739C662.319 304.739 662.953 304.767 663.654 304.824C664.374 304.862 664.97 304.928 665.444 305.023V314.483C665.008 314.331 664.317 314.199 663.37 314.085C662.442 313.953 661.542 313.886 660.671 313.886C658.796 313.886 657.111 314.294 655.614 315.108C654.137 315.903 652.972 317.011 652.12 318.432C651.268 319.852 650.842 321.491 650.842 323.347V349H640.558ZM696.41 305.364V313.318H671.325V305.364H696.41ZM677.518 294.909H687.802V335.875C687.802 337.258 688.01 338.318 688.427 339.057C688.862 339.777 689.431 340.269 690.131 340.534C690.832 340.799 691.609 340.932 692.461 340.932C693.105 340.932 693.692 340.884 694.222 340.79C694.772 340.695 695.188 340.61 695.472 340.534L697.205 348.574C696.656 348.763 695.87 348.972 694.847 349.199C693.844 349.426 692.612 349.559 691.154 349.597C688.578 349.672 686.258 349.284 684.194 348.432C682.129 347.561 680.491 346.216 679.279 344.398C678.086 342.58 677.499 340.307 677.518 337.58V294.909ZM756.928 306.812C756.663 304.331 755.546 302.4 753.576 301.017C751.625 299.634 749.087 298.943 745.962 298.943C743.765 298.943 741.881 299.275 740.309 299.938C738.737 300.6 737.534 301.5 736.701 302.636C735.868 303.773 735.442 305.07 735.423 306.528C735.423 307.741 735.697 308.792 736.246 309.682C736.815 310.572 737.582 311.33 738.548 311.955C739.513 312.561 740.584 313.072 741.758 313.489C742.932 313.905 744.116 314.256 745.309 314.54L750.763 315.903C752.96 316.415 755.072 317.106 757.099 317.977C759.144 318.848 760.972 319.947 762.582 321.273C764.21 322.598 765.498 324.199 766.445 326.074C767.392 327.949 767.866 330.146 767.866 332.665C767.866 336.074 766.995 339.076 765.252 341.67C763.51 344.246 760.991 346.263 757.695 347.722C754.419 349.161 750.451 349.881 745.792 349.881C741.265 349.881 737.335 349.18 734.002 347.778C730.688 346.377 728.093 344.331 726.218 341.642C724.362 338.953 723.358 335.676 723.207 331.812H733.576C733.728 333.839 734.353 335.525 735.451 336.869C736.549 338.214 737.979 339.218 739.741 339.881C741.521 340.544 743.51 340.875 745.707 340.875C747.998 340.875 750.006 340.534 751.729 339.852C753.472 339.152 754.835 338.186 755.82 336.955C756.805 335.705 757.307 334.246 757.326 332.58C757.307 331.064 756.862 329.814 755.991 328.83C755.12 327.826 753.898 326.992 752.326 326.33C750.773 325.648 748.955 325.042 746.871 324.511L740.252 322.807C735.46 321.576 731.673 319.71 728.888 317.21C726.123 314.691 724.741 311.348 724.741 307.182C724.741 303.754 725.669 300.752 727.525 298.176C729.4 295.6 731.947 293.602 735.167 292.182C738.387 290.742 742.032 290.023 746.104 290.023C750.233 290.023 753.851 290.742 756.957 292.182C760.082 293.602 762.534 295.581 764.315 298.119C766.095 300.638 767.013 303.536 767.07 306.812H756.928ZM787.092 323.432V349H776.808V290.818H786.864V312.778H787.376C788.398 310.316 789.98 308.375 792.12 306.955C794.279 305.515 797.025 304.795 800.359 304.795C803.389 304.795 806.031 305.43 808.285 306.699C810.539 307.968 812.281 309.824 813.512 312.267C814.762 314.71 815.387 317.693 815.387 321.216V349H805.103V322.807C805.103 319.871 804.345 317.589 802.83 315.96C801.334 314.312 799.232 313.489 796.523 313.489C794.705 313.489 793.076 313.886 791.637 314.682C790.217 315.458 789.099 316.585 788.285 318.062C787.489 319.54 787.092 321.33 787.092 323.432ZM844.904 349.852C840.643 349.852 836.95 348.915 833.825 347.04C830.7 345.165 828.275 342.542 826.552 339.17C824.847 335.799 823.995 331.86 823.995 327.352C823.995 322.845 824.847 318.896 826.552 315.506C828.275 312.116 830.7 309.483 833.825 307.608C836.95 305.733 840.643 304.795 844.904 304.795C849.165 304.795 852.859 305.733 855.984 307.608C859.109 309.483 861.523 312.116 863.228 315.506C864.951 318.896 865.813 322.845 865.813 327.352C865.813 331.86 864.951 335.799 863.228 339.17C861.523 342.542 859.109 345.165 855.984 347.04C852.859 348.915 849.165 349.852 844.904 349.852ZM844.961 341.614C847.272 341.614 849.203 340.979 850.756 339.71C852.309 338.422 853.465 336.699 854.222 334.54C854.999 332.381 855.387 329.975 855.387 327.324C855.387 324.653 854.999 322.239 854.222 320.08C853.465 317.902 852.309 316.169 850.756 314.881C849.203 313.593 847.272 312.949 844.961 312.949C842.594 312.949 840.624 313.593 839.052 314.881C837.499 316.169 836.334 317.902 835.558 320.08C834.8 322.239 834.421 324.653 834.421 327.324C834.421 329.975 834.8 332.381 835.558 334.54C836.334 336.699 837.499 338.422 839.052 339.71C840.624 340.979 842.594 341.614 844.961 341.614ZM882.298 349L869.968 305.364H880.451L888.121 336.045H888.519L896.36 305.364H906.729L914.57 335.875H914.996L922.553 305.364H933.065L920.707 349H909.996L901.815 319.511H901.218L893.036 349H882.298ZM958.313 349.852C953.938 349.852 950.16 348.943 946.978 347.125C943.815 345.288 941.381 342.693 939.677 339.341C937.972 335.97 937.12 332.002 937.12 327.438C937.12 322.949 937.972 319.009 939.677 315.619C941.4 312.21 943.806 309.559 946.893 307.665C949.98 305.752 953.607 304.795 957.773 304.795C960.463 304.795 963.001 305.231 965.387 306.102C967.792 306.955 969.914 308.28 971.751 310.08C973.607 311.879 975.065 314.17 976.126 316.955C977.186 319.72 977.717 323.015 977.717 326.841V329.994H941.95V323.062H967.859C967.84 321.093 967.414 319.341 966.58 317.807C965.747 316.254 964.582 315.032 963.086 314.142C961.609 313.252 959.885 312.807 957.915 312.807C955.813 312.807 953.967 313.318 952.376 314.341C950.785 315.345 949.544 316.67 948.654 318.318C947.783 319.947 947.338 321.737 947.319 323.688V329.739C947.319 332.277 947.783 334.455 948.711 336.273C949.639 338.072 950.936 339.455 952.603 340.42C954.27 341.367 956.22 341.841 958.455 341.841C959.951 341.841 961.306 341.633 962.518 341.216C963.73 340.78 964.781 340.146 965.671 339.312C966.561 338.479 967.234 337.447 967.688 336.216L977.29 337.295C976.684 339.833 975.529 342.049 973.825 343.943C972.139 345.818 969.98 347.277 967.347 348.318C964.715 349.341 961.703 349.852 958.313 349.852ZM986.417 349V305.364H996.388V312.636H996.843C997.638 310.117 999.002 308.176 1000.93 306.812C1002.88 305.43 1005.11 304.739 1007.61 304.739C1008.18 304.739 1008.81 304.767 1009.51 304.824C1010.23 304.862 1010.83 304.928 1011.3 305.023V314.483C1010.87 314.331 1010.18 314.199 1009.23 314.085C1008.3 313.953 1007.4 313.886 1006.53 313.886C1004.66 313.886 1002.97 314.294 1001.47 315.108C999.996 315.903 998.832 317.011 997.979 318.432C997.127 319.852 996.701 321.491 996.701 323.347V349H986.417Z" fill="white"/>
<path d="M519.348 554L507.477 511.936H515.672L523.25 542.847H523.641L531.733 511.936H539.189L547.301 542.868H547.671L555.25 511.936H563.445L551.574 554H544.056L535.635 524.486H535.307L526.865 554H519.348ZM574.259 554.637C572.26 554.637 570.459 554.281 568.857 553.569C567.269 552.843 566.009 551.775 565.078 550.365C564.16 548.954 563.702 547.215 563.702 545.148C563.702 543.368 564.03 541.896 564.688 540.732C565.345 539.568 566.242 538.637 567.378 537.939C568.515 537.24 569.795 536.713 571.219 536.357C572.657 535.987 574.142 535.72 575.676 535.556C577.524 535.364 579.024 535.193 580.174 535.043C581.324 534.878 582.159 534.632 582.68 534.303C583.214 533.961 583.481 533.434 583.481 532.722V532.598C583.481 531.051 583.022 529.853 582.105 529.004C581.187 528.155 579.866 527.731 578.141 527.731C576.319 527.731 574.875 528.128 573.807 528.922C572.753 529.716 572.041 530.654 571.671 531.736L564.729 530.75C565.276 528.833 566.18 527.231 567.44 525.944C568.7 524.643 570.24 523.671 572.061 523.027C573.882 522.37 575.895 522.041 578.1 522.041C579.619 522.041 581.132 522.219 582.639 522.576C584.145 522.932 585.521 523.52 586.767 524.342C588.013 525.15 589.013 526.252 589.766 527.649C590.532 529.045 590.916 530.791 590.916 532.886V554H583.768V549.666H583.522C583.07 550.543 582.433 551.364 581.612 552.131C580.804 552.884 579.784 553.493 578.551 553.959C577.333 554.411 575.902 554.637 574.259 554.637ZM576.189 549.173C577.682 549.173 578.976 548.879 580.071 548.29C581.167 547.688 582.009 546.894 582.598 545.908C583.2 544.922 583.501 543.847 583.501 542.683V538.966C583.268 539.157 582.871 539.335 582.31 539.5C581.762 539.664 581.146 539.808 580.461 539.931C579.777 540.054 579.099 540.164 578.428 540.259C577.757 540.355 577.175 540.437 576.682 540.506C575.573 540.657 574.581 540.903 573.704 541.245C572.828 541.588 572.136 542.067 571.63 542.683C571.123 543.286 570.87 544.066 570.87 545.025C570.87 546.394 571.37 547.428 572.369 548.126C573.369 548.824 574.642 549.173 576.189 549.173ZM614.145 522.452V528.203H596.009V522.452H614.145ZM600.487 514.894H607.922V544.511C607.922 545.511 608.073 546.277 608.374 546.811C608.689 547.332 609.1 547.688 609.606 547.879C610.113 548.071 610.674 548.167 611.29 548.167C611.756 548.167 612.18 548.133 612.564 548.064C612.961 547.996 613.262 547.934 613.467 547.879L614.72 553.692C614.323 553.829 613.755 553.979 613.016 554.144C612.29 554.308 611.4 554.404 610.346 554.431C608.483 554.486 606.806 554.205 605.314 553.589C603.821 552.959 602.637 551.987 601.76 550.673C600.898 549.358 600.473 547.715 600.487 545.743V514.894ZM633.991 554.616C630.828 554.616 628.096 553.959 625.796 552.644C623.509 551.316 621.75 549.44 620.517 547.017C619.285 544.579 618.669 541.711 618.669 538.411C618.669 535.166 619.285 532.318 620.517 529.867C621.763 527.402 623.502 525.485 625.734 524.116C627.966 522.733 630.588 522.041 633.601 522.041C635.545 522.041 637.38 522.356 639.105 522.986C640.844 523.602 642.378 524.561 643.706 525.862C645.048 527.163 646.102 528.819 646.869 530.832C647.636 532.831 648.019 535.214 648.019 537.98V540.259H622.161V535.248H640.892C640.878 533.824 640.57 532.557 639.968 531.448C639.365 530.326 638.523 529.442 637.441 528.799C636.373 528.155 635.127 527.833 633.703 527.833C632.184 527.833 630.849 528.203 629.698 528.943C628.548 529.668 627.651 530.627 627.008 531.818C626.378 532.996 626.056 534.29 626.042 535.7V540.075C626.042 541.909 626.378 543.484 627.049 544.799C627.72 546.099 628.658 547.099 629.863 547.797C631.068 548.482 632.478 548.824 634.094 548.824C635.175 548.824 636.154 548.674 637.031 548.372C637.907 548.057 638.667 547.599 639.311 546.996C639.954 546.394 640.44 545.648 640.769 544.758L647.711 545.538C647.273 547.373 646.438 548.975 645.205 550.344C643.987 551.7 642.426 552.754 640.522 553.507C638.619 554.246 636.442 554.616 633.991 554.616ZM654.309 554V522.452H661.518V527.71H661.847C662.422 525.889 663.408 524.486 664.804 523.5C666.215 522.5 667.824 522 669.631 522C670.042 522 670.501 522.021 671.007 522.062C671.527 522.089 671.959 522.137 672.301 522.206V529.045C671.986 528.936 671.486 528.84 670.802 528.758C670.131 528.662 669.48 528.614 668.851 528.614C667.495 528.614 666.276 528.908 665.195 529.497C664.127 530.072 663.285 530.873 662.668 531.9C662.052 532.927 661.744 534.112 661.744 535.453V554H654.309ZM690.067 518.324V511.936H723.628V518.324H710.627V554H703.068V518.324H690.067ZM739.16 554.616C735.997 554.616 733.266 553.959 730.965 552.644C728.679 551.316 726.919 549.44 725.687 547.017C724.454 544.579 723.838 541.711 723.838 538.411C723.838 535.166 724.454 532.318 725.687 529.867C726.933 527.402 728.672 525.485 730.904 524.116C733.136 522.733 735.758 522.041 738.77 522.041C740.714 522.041 742.549 522.356 744.274 522.986C746.013 523.602 747.547 524.561 748.875 525.862C750.217 527.163 751.271 528.819 752.038 530.832C752.805 532.831 753.188 535.214 753.188 537.98V540.259H727.33V535.248H746.061C746.048 533.824 745.74 532.557 745.137 531.448C744.535 530.326 743.693 529.442 742.611 528.799C741.543 528.155 740.297 527.833 738.873 527.833C737.353 527.833 736.018 528.203 734.868 528.943C733.718 529.668 732.821 530.627 732.177 531.818C731.547 532.996 731.225 534.29 731.212 535.7V540.075C731.212 541.909 731.547 543.484 732.218 544.799C732.889 546.099 733.827 547.099 735.032 547.797C736.237 548.482 737.647 548.824 739.263 548.824C740.345 548.824 741.324 548.674 742.2 548.372C743.076 548.057 743.836 547.599 744.48 546.996C745.123 546.394 745.61 545.648 745.938 544.758L752.88 545.538C752.442 547.373 751.607 548.975 750.375 550.344C749.156 551.7 747.595 552.754 745.692 553.507C743.788 554.246 741.611 554.616 739.16 554.616ZM759.478 554V522.452H766.585V527.813H766.955C767.612 526.005 768.7 524.595 770.22 523.582C771.74 522.555 773.554 522.041 775.663 522.041C777.799 522.041 779.6 522.562 781.065 523.602C782.544 524.629 783.584 526.033 784.187 527.813H784.515C785.214 526.06 786.391 524.664 788.048 523.623C789.718 522.569 791.697 522.041 793.984 522.041C796.887 522.041 799.255 522.959 801.09 524.794C802.925 526.629 803.842 529.305 803.842 532.824V554H796.387V533.975C796.387 532.017 795.866 530.586 794.826 529.682C793.785 528.765 792.512 528.306 791.006 528.306C789.212 528.306 787.808 528.867 786.795 529.99C785.796 531.099 785.296 532.544 785.296 534.324V554H778.004V533.667C778.004 532.037 777.512 530.736 776.526 529.764C775.554 528.792 774.28 528.306 772.705 528.306C771.637 528.306 770.665 528.58 769.789 529.127C768.913 529.661 768.214 530.421 767.694 531.407C767.174 532.379 766.913 533.516 766.913 534.817V554H759.478ZM811.385 565.83V522.452H818.697V527.669H819.128C819.512 526.902 820.053 526.088 820.751 525.225C821.449 524.349 822.394 523.602 823.585 522.986C824.777 522.356 826.297 522.041 828.145 522.041C830.582 522.041 832.78 522.665 834.738 523.911C836.71 525.143 838.271 526.971 839.421 529.394C840.585 531.804 841.167 534.762 841.167 538.267C841.167 541.731 840.598 544.675 839.462 547.099C838.325 549.523 836.778 551.371 834.82 552.644C832.862 553.918 830.644 554.555 828.166 554.555C826.358 554.555 824.859 554.253 823.668 553.651C822.476 553.048 821.518 552.323 820.792 551.474C820.08 550.611 819.526 549.796 819.128 549.03H818.82V565.83H811.385ZM818.677 538.226C818.677 540.266 818.964 542.053 819.539 543.587C820.128 545.12 820.97 546.318 822.066 547.181C823.175 548.03 824.516 548.455 826.091 548.455C827.734 548.455 829.11 548.016 830.219 547.14C831.329 546.25 832.164 545.038 832.725 543.505C833.3 541.957 833.588 540.198 833.588 538.226C833.588 536.268 833.307 534.529 832.746 533.009C832.184 531.489 831.349 530.298 830.24 529.435C829.131 528.573 827.748 528.142 826.091 528.142C824.503 528.142 823.154 528.559 822.045 529.394C820.936 530.23 820.094 531.4 819.519 532.907C818.957 534.413 818.677 536.186 818.677 538.226ZM861.5 554.616C858.337 554.616 855.606 553.959 853.305 552.644C851.018 551.316 849.259 549.44 848.027 547.017C846.794 544.579 846.178 541.711 846.178 538.411C846.178 535.166 846.794 532.318 848.027 529.867C849.273 527.402 851.012 525.485 853.244 524.116C855.475 522.733 858.098 522.041 861.11 522.041C863.054 522.041 864.889 522.356 866.614 522.986C868.353 523.602 869.887 524.561 871.215 525.862C872.557 527.163 873.611 528.819 874.378 530.832C875.145 532.831 875.528 535.214 875.528 537.98V540.259H849.67V535.248H868.401C868.388 533.824 868.079 532.557 867.477 531.448C866.875 530.326 866.032 529.442 864.951 528.799C863.883 528.155 862.637 527.833 861.213 527.833C859.693 527.833 858.358 528.203 857.208 528.943C856.057 529.668 855.161 530.627 854.517 531.818C853.887 532.996 853.565 534.29 853.552 535.7V540.075C853.552 541.909 853.887 543.484 854.558 544.799C855.229 546.099 856.167 547.099 857.372 547.797C858.577 548.482 859.987 548.824 861.603 548.824C862.685 548.824 863.664 548.674 864.54 548.372C865.416 548.057 866.176 547.599 866.82 546.996C867.463 546.394 867.949 545.648 868.278 544.758L875.22 545.538C874.782 547.373 873.947 548.975 872.714 550.344C871.496 551.7 869.935 552.754 868.032 553.507C866.128 554.246 863.951 554.616 861.5 554.616ZM881.818 554V522.452H889.027V527.71H889.356C889.931 525.889 890.917 524.486 892.314 523.5C893.724 522.5 895.333 522 897.14 522C897.551 522 898.01 522.021 898.516 522.062C899.037 522.089 899.468 522.137 899.81 522.206V529.045C899.495 528.936 898.996 528.84 898.311 528.758C897.64 528.662 896.99 528.614 896.36 528.614C895.004 528.614 893.786 528.908 892.704 529.497C891.636 530.072 890.794 530.873 890.178 531.9C889.561 532.927 889.253 534.112 889.253 535.453V554H881.818ZM913.263 554.637C911.264 554.637 909.464 554.281 907.862 553.569C906.273 552.843 905.014 551.775 904.082 550.365C903.165 548.954 902.706 547.215 902.706 545.148C902.706 543.368 903.035 541.896 903.692 540.732C904.349 539.568 905.246 538.637 906.383 537.939C907.519 537.24 908.8 536.713 910.224 536.357C911.661 535.987 913.147 535.72 914.68 535.556C916.529 535.364 918.028 535.193 919.178 535.043C920.329 534.878 921.164 534.632 921.684 534.303C922.218 533.961 922.485 533.434 922.485 532.722V532.598C922.485 531.051 922.027 529.853 921.109 529.004C920.192 528.155 918.87 527.731 917.145 527.731C915.324 527.731 913.879 528.128 912.811 528.922C911.757 529.716 911.045 530.654 910.675 531.736L903.733 530.75C904.281 528.833 905.185 527.231 906.444 525.944C907.704 524.643 909.245 523.671 911.066 523.027C912.887 522.37 914.9 522.041 917.104 522.041C918.624 522.041 920.137 522.219 921.643 522.576C923.149 522.932 924.525 523.52 925.771 524.342C927.017 525.15 928.017 526.252 928.77 527.649C929.537 529.045 929.92 530.791 929.92 532.886V554H922.773V549.666H922.526C922.074 550.543 921.438 551.364 920.616 552.131C919.808 552.884 918.788 553.493 917.556 553.959C916.337 554.411 914.906 554.637 913.263 554.637ZM915.194 549.173C916.686 549.173 917.98 548.879 919.076 548.29C920.171 547.688 921.013 546.894 921.602 545.908C922.205 544.922 922.506 543.847 922.506 542.683V538.966C922.273 539.157 921.876 539.335 921.315 539.5C920.767 539.664 920.151 539.808 919.466 539.931C918.781 540.054 918.104 540.164 917.433 540.259C916.762 540.355 916.18 540.437 915.687 540.506C914.578 540.657 913.585 540.903 912.709 541.245C911.832 541.588 911.141 542.067 910.634 542.683C910.128 543.286 909.874 544.066 909.874 545.025C909.874 546.394 910.374 547.428 911.374 548.126C912.373 548.824 913.647 549.173 915.194 549.173ZM953.15 522.452V528.203H935.014V522.452H953.15ZM939.491 514.894H946.927V544.511C946.927 545.511 947.077 546.277 947.378 546.811C947.693 547.332 948.104 547.688 948.611 547.879C949.117 548.071 949.679 548.167 950.295 548.167C950.76 548.167 951.185 548.133 951.568 548.064C951.965 547.996 952.267 547.934 952.472 547.879L953.725 553.692C953.328 553.829 952.76 553.979 952.02 554.144C951.294 554.308 950.404 554.404 949.35 554.431C947.488 554.486 945.811 554.205 944.318 553.589C942.826 552.959 941.641 551.987 940.765 550.673C939.902 549.358 939.478 547.715 939.491 545.743V514.894ZM979.476 540.732V522.452H986.911V554H979.701V548.393H979.373C978.661 550.159 977.49 551.604 975.861 552.727C974.245 553.849 972.253 554.411 969.884 554.411C967.816 554.411 965.988 553.952 964.4 553.035C962.825 552.104 961.593 550.755 960.703 548.989C959.813 547.208 959.368 545.059 959.368 542.539V522.452H966.803V541.389C966.803 543.388 967.351 544.977 968.446 546.154C969.542 547.332 970.979 547.92 972.759 547.92C973.855 547.92 974.916 547.653 975.943 547.119C976.97 546.585 977.812 545.791 978.469 544.737C979.14 543.669 979.476 542.334 979.476 540.732ZM994.556 554V522.452H1001.77V527.71H1002.09C1002.67 525.889 1003.65 524.486 1005.05 523.5C1006.46 522.5 1008.07 522 1009.88 522C1010.29 522 1010.75 522.021 1011.25 522.062C1011.77 522.089 1012.21 522.137 1012.55 522.206V529.045C1012.23 528.936 1011.73 528.84 1011.05 528.758C1010.38 528.662 1009.73 528.614 1009.1 528.614C1007.74 528.614 1006.52 528.908 1005.44 529.497C1004.37 530.072 1003.53 530.873 1002.92 531.9C1002.3 532.927 1001.99 534.112 1001.99 535.453V554H994.556ZM1030.16 554.616C1026.99 554.616 1024.26 553.959 1021.96 552.644C1019.67 551.316 1017.91 549.44 1016.68 547.017C1015.45 544.579 1014.83 541.711 1014.83 538.411C1014.83 535.166 1015.45 532.318 1016.68 529.867C1017.93 527.402 1019.67 525.485 1021.9 524.116C1024.13 522.733 1026.75 522.041 1029.76 522.041C1031.71 522.041 1033.54 522.356 1035.27 522.986C1037.01 523.602 1038.54 524.561 1039.87 525.862C1041.21 527.163 1042.27 528.819 1043.03 530.832C1043.8 532.831 1044.18 535.214 1044.18 537.98V540.259H1018.32V535.248H1037.06C1037.04 533.824 1036.73 532.557 1036.13 531.448C1035.53 530.326 1034.69 529.442 1033.61 528.799C1032.54 528.155 1031.29 527.833 1029.87 527.833C1028.35 527.833 1027.01 528.203 1025.86 528.943C1024.71 529.668 1023.82 530.627 1023.17 531.818C1022.54 532.996 1022.22 534.29 1022.21 535.7V540.075C1022.21 541.909 1022.54 543.484 1023.21 544.799C1023.88 546.099 1024.82 547.099 1026.03 547.797C1027.23 548.482 1028.64 548.824 1030.26 548.824C1031.34 548.824 1032.32 548.674 1033.19 548.372C1034.07 548.057 1034.83 547.599 1035.47 546.996C1036.12 546.394 1036.6 545.648 1036.93 544.758L1043.88 545.538C1043.44 547.373 1042.6 548.975 1041.37 550.344C1040.15 551.7 1038.59 552.754 1036.69 553.507C1034.78 554.246 1032.61 554.616 1030.16 554.616Z" fill="white"/>
<path d="M586.235 796L574.363 753.936H582.558L590.137 784.847H590.527L598.62 753.936H606.075L614.188 784.868H614.558L622.137 753.936H630.332L618.46 796H610.943L602.522 766.486H602.193L593.752 796H586.235ZM641.145 796.637C639.146 796.637 637.346 796.281 635.744 795.569C634.155 794.843 632.896 793.775 631.965 792.365C631.047 790.954 630.588 789.215 630.588 787.148C630.588 785.368 630.917 783.896 631.574 782.732C632.232 781.568 633.128 780.637 634.265 779.939C635.401 779.24 636.682 778.713 638.106 778.357C639.543 777.987 641.029 777.72 642.563 777.556C644.411 777.364 645.91 777.193 647.061 777.043C648.211 776.878 649.046 776.632 649.566 776.303C650.1 775.961 650.367 775.434 650.367 774.722V774.598C650.367 773.051 649.909 771.853 648.991 771.004C648.074 770.155 646.753 769.731 645.027 769.731C643.206 769.731 641.762 770.128 640.694 770.922C639.639 771.716 638.927 772.654 638.558 773.736L631.615 772.75C632.163 770.833 633.067 769.231 634.327 767.944C635.586 766.643 637.127 765.671 638.948 765.027C640.769 764.37 642.782 764.041 644.986 764.041C646.506 764.041 648.019 764.219 649.525 764.576C651.031 764.932 652.408 765.52 653.654 766.342C654.9 767.15 655.899 768.252 656.652 769.649C657.419 771.045 657.802 772.791 657.802 774.886V796H650.655V791.666H650.408C649.957 792.543 649.32 793.364 648.498 794.131C647.691 794.884 646.67 795.493 645.438 795.959C644.219 796.411 642.789 796.637 641.145 796.637ZM643.076 791.173C644.569 791.173 645.863 790.879 646.958 790.29C648.053 789.688 648.895 788.894 649.484 787.908C650.087 786.922 650.388 785.847 650.388 784.683V780.966C650.155 781.157 649.758 781.335 649.197 781.5C648.649 781.664 648.033 781.808 647.348 781.931C646.664 782.054 645.986 782.164 645.315 782.259C644.644 782.355 644.062 782.437 643.569 782.506C642.46 782.657 641.467 782.903 640.591 783.245C639.715 783.588 639.023 784.067 638.516 784.683C638.01 785.286 637.757 786.066 637.757 787.025C637.757 788.394 638.256 789.428 639.256 790.126C640.255 790.824 641.529 791.173 643.076 791.173ZM681.032 764.452V770.203H662.896V764.452H681.032ZM667.374 756.894H674.809V786.511C674.809 787.511 674.959 788.277 675.261 788.811C675.575 789.332 675.986 789.688 676.493 789.879C676.999 790.071 677.561 790.167 678.177 790.167C678.643 790.167 679.067 790.133 679.45 790.064C679.848 789.996 680.149 789.934 680.354 789.879L681.607 795.692C681.21 795.829 680.642 795.979 679.902 796.144C679.177 796.308 678.287 796.404 677.232 796.431C675.37 796.486 673.693 796.205 672.2 795.589C670.708 794.959 669.523 793.987 668.647 792.673C667.784 791.358 667.36 789.715 667.374 787.743V756.894ZM700.878 796.616C697.715 796.616 694.983 795.959 692.683 794.644C690.396 793.316 688.636 791.44 687.404 789.017C686.172 786.579 685.556 783.711 685.556 780.411C685.556 777.166 686.172 774.318 687.404 771.867C688.65 769.402 690.389 767.485 692.621 766.116C694.853 764.733 697.475 764.041 700.487 764.041C702.432 764.041 704.267 764.356 705.992 764.986C707.731 765.602 709.264 766.561 710.593 767.862C711.934 769.163 712.989 770.819 713.756 772.832C714.522 774.831 714.906 777.214 714.906 779.98V782.259H689.047V777.248H707.779C707.765 775.824 707.457 774.557 706.854 773.448C706.252 772.326 705.41 771.442 704.328 770.799C703.26 770.155 702.014 769.833 700.59 769.833C699.07 769.833 697.735 770.203 696.585 770.943C695.435 771.668 694.538 772.627 693.894 773.818C693.265 774.996 692.943 776.29 692.929 777.7V782.075C692.929 783.909 693.265 785.484 693.936 786.799C694.606 788.099 695.544 789.099 696.749 789.797C697.954 790.482 699.365 790.824 700.98 790.824C702.062 790.824 703.041 790.674 703.917 790.372C704.794 790.057 705.554 789.599 706.197 788.996C706.841 788.394 707.327 787.648 707.655 786.758L714.598 787.538C714.159 789.373 713.324 790.975 712.092 792.344C710.873 793.7 709.312 794.754 707.409 795.507C705.506 796.246 703.329 796.616 700.878 796.616ZM721.196 796V764.452H728.405V769.71H728.734C729.309 767.889 730.294 766.486 731.691 765.5C733.101 764.5 734.71 764 736.518 764C736.929 764 737.387 764.021 737.894 764.062C738.414 764.089 738.845 764.137 739.188 764.206V771.045C738.873 770.936 738.373 770.84 737.688 770.758C737.018 770.662 736.367 770.614 735.737 770.614C734.382 770.614 733.163 770.908 732.081 771.497C731.013 772.072 730.171 772.873 729.555 773.9C728.939 774.927 728.631 776.112 728.631 777.453V796H721.196ZM764.43 753.936L775.377 787.045H775.809L786.735 753.936H795.115L780.286 796H770.879L756.071 753.936H764.43ZM810.699 796.616C807.618 796.616 804.948 795.938 802.689 794.583C800.43 793.227 798.677 791.331 797.431 788.894C796.199 786.456 795.582 783.608 795.582 780.349C795.582 777.091 796.199 774.236 797.431 771.785C798.677 769.334 800.43 767.43 802.689 766.075C804.948 764.719 807.618 764.041 810.699 764.041C813.78 764.041 816.45 764.719 818.709 766.075C820.969 767.43 822.714 769.334 823.947 771.785C825.193 774.236 825.816 777.091 825.816 780.349C825.816 783.608 825.193 786.456 823.947 788.894C822.714 791.331 820.969 793.227 818.709 794.583C816.45 795.938 813.78 796.616 810.699 796.616ZM810.74 790.66C812.411 790.66 813.807 790.201 814.93 789.284C816.053 788.353 816.888 787.107 817.436 785.546C817.997 783.985 818.278 782.246 818.278 780.329C818.278 778.398 817.997 776.652 817.436 775.091C816.888 773.517 816.053 772.264 814.93 771.333C813.807 770.402 812.411 769.936 810.74 769.936C809.029 769.936 807.605 770.402 806.468 771.333C805.345 772.264 804.503 773.517 803.942 775.091C803.394 776.652 803.12 778.398 803.12 780.329C803.12 782.246 803.394 783.985 803.942 785.546C804.503 787.107 805.345 788.353 806.468 789.284C807.605 790.201 809.029 790.66 810.74 790.66ZM839.561 753.936V796H832.126V753.936H839.561ZM867.315 782.732V764.452H874.75V796H867.54V790.393H867.212C866.5 792.159 865.329 793.604 863.7 794.727C862.084 795.849 860.092 796.411 857.723 796.411C855.655 796.411 853.827 795.952 852.239 795.035C850.664 794.104 849.432 792.755 848.542 790.989C847.652 789.208 847.207 787.059 847.207 784.539V764.452H854.642V783.389C854.642 785.388 855.19 786.977 856.285 788.154C857.381 789.332 858.818 789.92 860.598 789.92C861.694 789.92 862.755 789.653 863.782 789.119C864.809 788.585 865.651 787.791 866.308 786.737C866.979 785.669 867.315 784.334 867.315 782.732ZM882.395 796V764.452H889.502V769.813H889.871C890.529 768.005 891.617 766.595 893.137 765.582C894.657 764.555 896.471 764.041 898.58 764.041C900.716 764.041 902.516 764.562 903.982 765.602C905.46 766.629 906.501 768.033 907.103 769.813H907.432C908.13 768.06 909.308 766.664 910.965 765.623C912.635 764.569 914.614 764.041 916.901 764.041C919.803 764.041 922.172 764.959 924.007 766.794C925.842 768.629 926.759 771.305 926.759 774.824V796H919.304V775.975C919.304 774.017 918.783 772.586 917.743 771.682C916.702 770.765 915.429 770.306 913.922 770.306C912.129 770.306 910.725 770.867 909.712 771.99C908.712 773.099 908.213 774.544 908.213 776.324V796H900.921V775.667C900.921 774.037 900.428 772.736 899.442 771.764C898.47 770.792 897.197 770.306 895.622 770.306C894.554 770.306 893.582 770.58 892.706 771.127C891.829 771.661 891.131 772.421 890.611 773.407C890.09 774.379 889.83 775.516 889.83 776.817V796H882.395ZM948.269 796.616C945.106 796.616 942.374 795.959 940.074 794.644C937.787 793.316 936.027 791.44 934.795 789.017C933.563 786.579 932.947 783.711 932.947 780.411C932.947 777.166 933.563 774.318 934.795 771.867C936.041 769.402 937.78 767.485 940.012 766.116C942.244 764.733 944.866 764.041 947.878 764.041C949.823 764.041 951.657 764.356 953.383 764.986C955.122 765.602 956.655 766.561 957.983 767.862C959.325 769.163 960.38 770.819 961.146 772.832C961.913 774.831 962.297 777.214 962.297 779.98V782.259H936.438V777.248H955.17C955.156 775.824 954.848 774.557 954.245 773.448C953.643 772.326 952.801 771.442 951.719 770.799C950.651 770.155 949.405 769.833 947.981 769.833C946.461 769.833 945.126 770.203 943.976 770.943C942.826 771.668 941.929 772.627 941.285 773.818C940.655 774.996 940.334 776.29 940.32 777.7V782.075C940.32 783.909 940.655 785.484 941.326 786.799C941.997 788.099 942.935 789.099 944.14 789.797C945.345 790.482 946.756 790.824 948.371 790.824C949.453 790.824 950.432 790.674 951.308 790.372C952.185 790.057 952.945 789.599 953.588 788.996C954.232 788.394 954.718 787.648 955.046 786.758L961.989 787.538C961.55 789.373 960.715 790.975 959.483 792.344C958.264 793.7 956.703 794.754 954.8 795.507C952.897 796.246 950.72 796.616 948.269 796.616Z" fill="white"/>
<rect x="402.066" y="587.066" width="745.869" height="45.8688" rx="22.7219" stroke="white" stroke-width="4.13125"/>
<rect x="402.547" y="828.953" width="745.869" height="45.8688" rx="22.7219" stroke="white" stroke-width="4.13125"/>
<rect x="400" y="585" width="106" height="50" rx="25" fill="white"/>
<rect x="400" y="827" width="667" height="50" rx="25" fill="white"/>
<circle cx="484.5" cy="610.5" r="12.5" fill="black"/>
<circle cx="1045.5" cy="851.5" r="12.5" fill="black"/>
<path d="M1190.83 584.893V622.45H1185.14V590.578H1184.92L1175.94 596.447V591.018L1185.31 584.893H1190.83ZM1213.68 622.964C1211.05 622.964 1208.73 622.511 1206.71 621.607C1204.7 620.702 1203.13 619.455 1202 617.866C1200.86 616.276 1200.3 614.467 1200.31 612.437C1200.3 610.848 1200.62 609.387 1201.28 608.055C1201.95 606.71 1202.86 605.591 1204.01 604.699C1205.16 603.794 1206.45 603.219 1207.86 602.975V602.755C1205.99 602.303 1204.5 601.3 1203.37 599.747C1202.25 598.195 1201.69 596.41 1201.7 594.393C1201.69 592.473 1202.2 590.762 1203.22 589.258C1204.26 587.742 1205.69 586.55 1207.5 585.682C1209.31 584.814 1211.37 584.38 1213.68 584.38C1215.96 584.38 1218 584.82 1219.8 585.7C1221.61 586.568 1223.04 587.76 1224.07 589.276C1225.11 590.78 1225.64 592.485 1225.65 594.393C1225.64 596.41 1225.07 598.195 1223.93 599.747C1222.79 601.3 1221.31 602.303 1219.49 602.755V602.975C1220.9 603.219 1222.16 603.794 1223.29 604.699C1224.42 605.591 1225.33 606.71 1226 608.055C1226.68 609.387 1227.03 610.848 1227.05 612.437C1227.03 614.467 1226.46 616.276 1225.32 617.866C1224.18 619.455 1222.61 620.702 1220.59 621.607C1218.59 622.511 1216.28 622.964 1213.68 622.964ZM1213.68 618.324C1215.23 618.324 1216.57 618.067 1217.71 617.554C1218.85 617.028 1219.73 616.301 1220.35 615.372C1220.98 614.43 1221.29 613.33 1221.31 612.071C1221.29 610.763 1220.95 609.607 1220.28 608.605C1219.62 607.602 1218.72 606.814 1217.58 606.239C1216.45 605.665 1215.14 605.377 1213.68 605.377C1212.2 605.377 1210.88 605.665 1209.73 606.239C1208.59 606.814 1207.68 607.602 1207.02 608.605C1206.36 609.607 1206.04 610.763 1206.05 612.071C1206.04 613.33 1206.34 614.43 1206.95 615.372C1207.57 616.301 1208.46 617.028 1209.61 617.554C1210.76 618.067 1212.11 618.324 1213.68 618.324ZM1213.68 600.848C1214.92 600.848 1216.03 600.597 1217 600.096C1217.96 599.595 1218.72 598.898 1219.27 598.005C1219.83 597.113 1220.12 596.068 1220.13 594.869C1220.12 593.696 1219.84 592.669 1219.29 591.789C1218.75 590.908 1218 590.23 1217.03 589.753C1216.07 589.264 1214.95 589.019 1213.68 589.019C1212.38 589.019 1211.24 589.264 1210.27 589.753C1209.3 590.23 1208.55 590.908 1208.01 591.789C1207.47 592.669 1207.21 593.696 1207.22 594.869C1207.21 596.068 1207.48 597.113 1208.03 598.005C1208.58 598.898 1209.34 599.595 1210.3 600.096C1211.28 600.597 1212.41 600.848 1213.68 600.848ZM1241.78 601.875C1240.19 601.875 1238.74 601.49 1237.43 600.719C1236.13 599.937 1235.09 598.892 1234.31 597.583C1233.54 596.275 1233.16 594.827 1233.16 593.237C1233.16 591.648 1233.54 590.205 1234.31 588.909C1235.09 587.601 1236.13 586.562 1237.43 585.792C1238.74 585.01 1240.19 584.618 1241.78 584.618C1243.37 584.618 1244.81 585.01 1246.12 585.792C1247.43 586.562 1248.47 587.601 1249.24 588.909C1250.02 590.205 1250.41 591.648 1250.41 593.237C1250.41 594.827 1250.02 596.275 1249.24 597.583C1248.47 598.892 1247.43 599.937 1246.12 600.719C1244.81 601.49 1243.37 601.875 1241.78 601.875ZM1241.78 597.694C1242.61 597.694 1243.36 597.492 1244.03 597.088C1244.7 596.685 1245.24 596.147 1245.63 595.475C1246.03 594.802 1246.23 594.056 1246.23 593.237C1246.23 592.418 1246.03 591.672 1245.63 591C1245.24 590.328 1244.7 589.796 1244.03 589.405C1243.36 589.001 1242.61 588.799 1241.78 588.799C1240.96 588.799 1240.21 589.001 1239.54 589.405C1238.87 589.796 1238.33 590.328 1237.92 591C1237.53 591.672 1237.34 592.418 1237.34 593.237C1237.34 594.056 1237.53 594.802 1237.92 595.475C1238.33 596.147 1238.87 596.685 1239.54 597.088C1240.21 597.492 1240.96 597.694 1241.78 597.694ZM1288.17 597.107H1282.45C1282.23 595.884 1281.82 594.808 1281.22 593.879C1280.62 592.95 1279.88 592.161 1279.02 591.513C1278.15 590.866 1277.18 590.377 1276.1 590.046C1275.04 589.716 1273.91 589.551 1272.71 589.551C1270.54 589.551 1268.61 590.095 1266.89 591.183C1265.2 592.271 1263.85 593.867 1262.86 595.97C1261.88 598.072 1261.39 600.64 1261.39 603.672C1261.39 606.728 1261.88 609.308 1262.86 611.411C1263.85 613.513 1265.2 615.103 1266.91 616.178C1268.62 617.254 1270.55 617.792 1272.69 617.792C1273.88 617.792 1275 617.633 1276.06 617.315C1277.14 616.985 1278.11 616.502 1278.98 615.867C1279.85 615.231 1280.58 614.455 1281.18 613.538C1281.79 612.609 1282.21 611.545 1282.45 610.347L1288.17 610.365C1287.86 612.211 1287.27 613.911 1286.39 615.463C1285.52 617.004 1284.4 618.336 1283.03 619.461C1281.68 620.574 1280.12 621.435 1278.37 622.047C1276.63 622.658 1274.72 622.964 1272.65 622.964C1269.4 622.964 1266.5 622.193 1263.96 620.653C1261.42 619.1 1259.41 616.881 1257.95 613.996C1256.49 611.111 1255.76 607.67 1255.76 603.672C1255.76 599.662 1256.5 596.22 1257.96 593.347C1259.43 590.462 1261.44 588.249 1263.98 586.709C1266.52 585.156 1269.41 584.38 1272.65 584.38C1274.65 584.38 1276.5 584.667 1278.23 585.242C1279.96 585.804 1281.52 586.636 1282.9 587.736C1284.29 588.824 1285.43 590.156 1286.33 591.734C1287.24 593.298 1287.85 595.089 1288.17 597.107Z" fill="white"/>
<path d="M1193.85 865.007C1191.22 865.007 1188.9 864.555 1186.88 863.65C1184.87 862.745 1183.3 861.498 1182.17 859.909C1181.03 858.32 1180.47 856.51 1180.48 854.481C1180.47 852.892 1180.79 851.431 1181.45 850.098C1182.12 848.753 1183.03 847.635 1184.18 846.742C1185.33 845.837 1186.62 845.263 1188.03 845.018V844.798C1186.16 844.346 1184.67 843.343 1183.54 841.791C1182.42 840.238 1181.86 838.453 1181.87 836.436C1181.86 834.517 1182.37 832.805 1183.39 831.301C1184.43 829.785 1185.86 828.593 1187.67 827.725C1189.48 826.857 1191.54 826.423 1193.85 826.423C1196.13 826.423 1198.18 826.863 1199.97 827.744C1201.78 828.612 1203.21 829.804 1204.25 831.32C1205.28 832.823 1205.81 834.529 1205.82 836.436C1205.81 838.453 1205.24 840.238 1204.1 841.791C1202.96 843.343 1201.48 844.346 1199.66 844.798V845.018C1201.07 845.263 1202.33 845.837 1203.46 846.742C1204.59 847.635 1205.5 848.753 1206.17 850.098C1206.86 851.431 1207.2 852.892 1207.22 854.481C1207.2 856.51 1206.63 858.32 1205.49 859.909C1204.36 861.498 1202.78 862.745 1200.76 863.65C1198.76 864.555 1196.45 865.007 1193.85 865.007ZM1193.85 860.368C1195.4 860.368 1196.74 860.111 1197.88 859.597C1199.02 859.072 1199.9 858.344 1200.52 857.415C1201.15 856.474 1201.46 855.373 1201.48 854.114C1201.46 852.806 1201.12 851.651 1200.45 850.648C1199.79 849.646 1198.89 848.857 1197.75 848.283C1196.62 847.708 1195.31 847.421 1193.85 847.421C1192.37 847.421 1191.05 847.708 1189.9 848.283C1188.76 848.857 1187.85 849.646 1187.19 850.648C1186.53 851.651 1186.21 852.806 1186.22 854.114C1186.21 855.373 1186.51 856.474 1187.12 857.415C1187.74 858.344 1188.63 859.072 1189.78 859.597C1190.93 860.111 1192.28 860.368 1193.85 860.368ZM1193.85 842.891C1195.09 842.891 1196.2 842.641 1197.17 842.139C1198.13 841.638 1198.89 840.941 1199.44 840.049C1200 839.156 1200.29 838.111 1200.3 836.913C1200.29 835.739 1200.01 834.712 1199.46 833.832C1198.92 832.952 1198.17 832.273 1197.2 831.796C1196.24 831.307 1195.12 831.063 1193.85 831.063C1192.55 831.063 1191.41 831.307 1190.44 831.796C1189.47 832.273 1188.72 832.952 1188.18 833.832C1187.64 834.712 1187.38 835.739 1187.39 836.913C1187.38 838.111 1187.65 839.156 1188.2 840.049C1188.75 840.941 1189.51 841.638 1190.47 842.139C1191.45 842.641 1192.58 842.891 1193.85 842.891ZM1226.27 826.423C1227.95 826.436 1229.6 826.741 1231.23 827.34C1232.85 827.939 1234.32 828.917 1235.63 830.274C1236.95 831.631 1238 833.465 1238.78 835.776C1239.58 838.074 1239.98 840.935 1239.99 844.358C1239.99 847.647 1239.66 850.575 1239 853.142C1238.34 855.697 1237.39 857.855 1236.16 859.616C1234.94 861.376 1233.45 862.715 1231.7 863.632C1229.95 864.549 1227.99 865.007 1225.8 865.007C1223.56 865.007 1221.57 864.567 1219.84 863.687C1218.1 862.807 1216.69 861.59 1215.6 860.037C1214.51 858.473 1213.83 856.675 1213.57 854.646H1219.16C1219.53 856.26 1220.27 857.568 1221.4 858.57C1222.53 859.561 1224 860.056 1225.8 860.056C1228.55 860.056 1230.69 858.858 1232.23 856.461C1233.77 854.053 1234.55 850.691 1234.56 846.375H1234.27C1233.63 847.427 1232.84 848.332 1231.89 849.089C1230.94 849.847 1229.89 850.434 1228.71 850.85C1227.54 851.266 1226.29 851.473 1224.95 851.473C1222.79 851.473 1220.82 850.942 1219.05 849.878C1217.28 848.814 1215.86 847.353 1214.81 845.495C1213.76 843.637 1213.24 841.516 1213.24 839.132C1213.24 836.76 1213.77 834.608 1214.85 832.677C1215.94 830.745 1217.45 829.217 1219.4 828.092C1221.35 826.955 1223.65 826.399 1226.27 826.423ZM1226.29 831.191C1224.86 831.191 1223.57 831.546 1222.42 832.255C1221.29 832.952 1220.39 833.899 1219.73 835.097C1219.07 836.283 1218.74 837.604 1218.74 839.058C1218.74 840.513 1219.05 841.834 1219.69 843.02C1220.34 844.193 1221.22 845.128 1222.33 845.825C1223.46 846.51 1224.74 846.852 1226.18 846.852C1227.26 846.852 1228.26 846.644 1229.19 846.229C1230.12 845.813 1230.93 845.238 1231.63 844.505C1232.33 843.759 1232.87 842.916 1233.26 841.974C1233.65 841.033 1233.85 840.043 1233.85 839.003C1233.85 837.622 1233.52 836.338 1232.86 835.152C1232.21 833.967 1231.32 833.013 1230.18 832.292C1229.04 831.558 1227.75 831.191 1226.29 831.191ZM1266.22 857.452V855.471C1266.22 854.053 1266.51 852.757 1267.1 851.583C1267.7 850.398 1268.57 849.45 1269.7 848.741C1270.85 848.02 1272.24 847.659 1273.87 847.659C1275.53 847.659 1276.92 848.014 1278.05 848.723C1279.17 849.432 1280.02 850.379 1280.6 851.565C1281.18 852.751 1281.48 854.053 1281.48 855.471V857.452C1281.48 858.87 1281.18 860.172 1280.6 861.358C1280.01 862.531 1279.15 863.479 1278.01 864.2C1276.89 864.909 1275.5 865.264 1273.87 865.264C1272.22 865.264 1270.82 864.909 1269.69 864.2C1268.55 863.479 1267.69 862.531 1267.1 861.358C1266.51 860.172 1266.22 858.87 1266.22 857.452ZM1270.49 855.471V857.452C1270.49 858.503 1270.74 859.457 1271.24 860.313C1271.75 861.168 1272.62 861.596 1273.87 861.596C1275.1 861.596 1275.96 861.168 1276.45 860.313C1276.94 859.457 1277.19 858.503 1277.19 857.452V855.471C1277.19 854.42 1276.95 853.466 1276.47 852.61C1276.01 851.755 1275.14 851.327 1273.87 851.327C1272.64 851.327 1271.78 851.755 1271.26 852.61C1270.75 853.466 1270.49 854.42 1270.49 855.471ZM1247.33 835.959V833.979C1247.33 832.561 1247.62 831.259 1248.21 830.073C1248.81 828.887 1249.68 827.939 1250.82 827.23C1251.96 826.521 1253.35 826.167 1254.98 826.167C1256.64 826.167 1258.03 826.521 1259.16 827.23C1260.28 827.939 1261.13 828.887 1261.71 830.073C1262.28 831.259 1262.57 832.561 1262.57 833.979V835.959C1262.57 837.377 1262.28 838.679 1261.69 839.865C1261.12 841.039 1260.26 841.986 1259.12 842.708C1258 843.417 1256.62 843.771 1254.98 843.771C1253.32 843.771 1251.92 843.417 1250.78 842.708C1249.65 841.986 1248.8 841.039 1248.21 839.865C1247.62 838.679 1247.33 837.377 1247.33 835.959ZM1251.62 833.979V835.959C1251.62 837.011 1251.87 837.964 1252.36 838.82C1252.86 839.676 1253.73 840.104 1254.98 840.104C1256.2 840.104 1257.06 839.676 1257.55 838.82C1258.05 837.964 1258.3 837.011 1258.3 835.959V833.979C1258.3 832.927 1258.06 831.974 1257.58 831.118C1257.11 830.262 1256.24 829.834 1254.98 829.834C1253.76 829.834 1252.89 830.262 1252.37 831.118C1251.87 831.974 1251.62 832.927 1251.62 833.979ZM1249.07 864.494L1274.89 826.937H1279.28L1253.46 864.494H1249.07Z" fill="white"/>
<line x1="354.033" y1="407" x2="354.033" y2="972" stroke="white" stroke-width="2.06562"/>
<line x1="208" y1="405.967" x2="1341" y2="405.967" stroke="white" stroke-width="2.06562"/>
<line x1="208" y1="781.967" x2="355" y2="781.967" stroke="white" stroke-width="2.06562"/>
<path d="M246 473H316.629" stroke="black" stroke-width="5" stroke-linecap="round"/>
<line x1="280.5" y1="534.5" x2="280.5" y2="479.5" stroke="black" stroke-width="3" stroke-linecap="round" stroke-dasharray="4.35 4.35"/>
<line x1="269.5" y1="534.5" x2="269.5" y2="479.5" stroke="black" stroke-width="3" stroke-linecap="round" stroke-dasharray="4.35 4.35"/>
<line x1="258.5" y1="528.5" x2="258.5" y2="479.5" stroke="black" stroke-width="3" stroke-linecap="round" stroke-dasharray="4.35 4.35"/>
<line x1="302.5" y1="528.5" x2="302.5" y2="479.5" stroke="black" stroke-width="3" stroke-linecap="round" stroke-dasharray="4.35 4.35"/>
<line x1="247.5" y1="522.5" x2="247.5" y2="479.5" stroke="black" stroke-width="3" stroke-linecap="round" stroke-dasharray="4.35 4.35"/>
<path d="M314 522L314 479" stroke="black" stroke-width="3" stroke-linecap="round" stroke-dasharray="4.35 4.35"/>
<line x1="291.5" y1="534.5" x2="291.5" y2="479.5" stroke="black" stroke-width="3" stroke-linecap="round" stroke-dasharray="4.35 4.35"/>
<path d="M256 701.445L256 673.445" stroke="white" stroke-width="5" stroke-linecap="round"/>
<line x1="307.391" y1="688.076" x2="265.5" y2="688.076" stroke="white" stroke-width="3" stroke-linecap="round" stroke-dasharray="5.13 5.13"/>
<line x1="264.269" y1="698.095" x2="303.634" y2="712.423" stroke="white" stroke-width="3" stroke-linecap="round" stroke-dasharray="5.13 5.13"/>
<line x1="263.239" y1="676.469" x2="302.706" y2="662.104" stroke="white" stroke-width="3" stroke-linecap="round" stroke-dasharray="5.13 5.13"/>
<path d="M252 902.904L281.567 852" stroke="white" stroke-width="5" stroke-linecap="round"/>
<line x1="313.715" y1="875.548" x2="284.848" y2="862.81" stroke="white" stroke-width="3" stroke-linecap="round" stroke-dasharray="5.12 5.12"/>
<line x1="307.167" y1="886.162" x2="281.8" y2="867.398" stroke="white" stroke-width="3" stroke-linecap="round" stroke-dasharray="5.12 5.12"/>
<line x1="299.789" y1="893.407" x2="277.562" y2="871.011" stroke="white" stroke-width="3" stroke-linecap="round" stroke-dasharray="5.12 5.12"/>
<line x1="316.783" y1="865.701" x2="286.317" y2="857.491" stroke="white" stroke-width="3" stroke-linecap="round" stroke-dasharray="5.12 5.12"/>
<path d="M1098.25 782.601C1098.43 782.601 1098.61 782.639 1098.77 782.71C1098.94 782.782 1099.08 782.887 1099.21 783.018L1099.21 783.026L1099.22 783.035C1100.47 784.35 1101.87 785.974 1102.94 787.601C1104.08 789.322 1104.58 790.653 1104.58 791.468C1104.58 795.267 1101.65 798.17 1098.25 798.17C1094.85 798.17 1091.92 795.267 1091.92 791.468C1091.92 790.653 1092.42 789.322 1093.56 787.601C1094.63 785.974 1096.03 784.35 1097.28 783.035L1097.29 783.026L1097.29 783.018C1097.42 782.887 1097.56 782.782 1097.73 782.71C1097.89 782.639 1098.07 782.601 1098.25 782.601ZM1124.75 782.601C1124.93 782.601 1125.11 782.639 1125.27 782.71C1125.44 782.782 1125.58 782.887 1125.71 783.018L1125.71 783.026L1125.72 783.035C1126.97 784.35 1128.37 785.974 1129.44 787.601C1130.58 789.322 1131.08 790.653 1131.08 791.468C1131.08 795.267 1128.15 798.17 1124.75 798.17C1121.35 798.17 1118.42 795.267 1118.42 791.468C1118.42 790.653 1118.92 789.322 1120.06 787.601C1121.13 785.974 1122.53 784.35 1123.78 783.035L1123.79 783.026L1123.79 783.018C1123.92 782.887 1124.06 782.782 1124.23 782.71C1124.39 782.639 1124.57 782.601 1124.75 782.601ZM1111.5 760.518C1111.68 760.518 1111.86 760.555 1112.02 760.626C1112.19 760.698 1112.33 760.804 1112.46 760.935L1112.47 760.951C1113.72 762.266 1115.12 763.891 1116.19 765.518C1117.33 767.24 1117.83 768.57 1117.83 769.385C1117.83 773.184 1114.9 776.087 1111.5 776.087C1108.1 776.087 1105.17 773.184 1105.17 769.385C1105.17 768.57 1105.67 767.239 1106.81 765.518C1107.88 763.891 1109.28 762.266 1110.53 760.951L1110.54 760.943L1110.54 760.935C1110.67 760.804 1110.81 760.698 1110.98 760.626C1111.14 760.555 1111.32 760.518 1111.5 760.518Z" stroke="white" stroke-width="5"/>
<path fill-rule="evenodd" clip-rule="evenodd" d="M1269.41 296H1266.59L1264.98 302.445L1263.36 302.945C1262.42 303.235 1261.51 303.614 1260.64 304.075L1259.14 304.868L1253.44 301.448L1251.45 303.44L1254.87 309.14L1254.07 310.635C1253.61 311.507 1253.23 312.42 1252.94 313.363L1252.44 314.98L1246 316.593V319.407L1252.44 321.02L1252.95 322.637C1253.23 323.584 1253.61 324.493 1254.07 325.365L1254.87 326.862L1251.45 332.562L1253.44 334.553L1259.14 331.132L1260.64 331.925C1261.51 332.388 1262.42 332.766 1263.36 333.058L1264.98 333.555L1266.59 340H1269.41L1271.02 333.555L1272.64 333.055C1273.58 332.765 1274.49 332.386 1275.37 331.925L1276.86 331.132L1282.56 334.553L1284.55 332.56L1281.13 326.86L1281.92 325.365C1282.39 324.493 1282.77 323.584 1283.06 322.637L1283.56 321.02L1290 319.407V316.593L1283.56 314.98L1283.06 313.363C1282.76 312.42 1282.39 311.507 1281.92 310.635L1281.13 309.138L1284.55 303.438L1282.56 301.448L1276.86 304.868L1275.37 304.075C1274.49 303.613 1273.58 303.234 1272.64 302.943L1271.02 302.445L1269.41 296ZM1276.77 301.425L1281.35 298.675C1281.83 298.388 1282.39 298.27 1282.94 298.338C1283.5 298.406 1284.01 298.656 1284.4 299.05L1286.95 301.595C1287.34 301.989 1287.59 302.504 1287.66 303.057C1287.73 303.61 1287.61 304.17 1287.32 304.648L1284.57 309.23C1285.12 310.263 1285.58 311.347 1285.92 312.48L1291.11 313.778C1291.65 313.913 1292.13 314.225 1292.47 314.664C1292.81 315.104 1293 315.645 1293 316.202V319.798C1293 320.355 1292.81 320.896 1292.47 321.336C1292.13 321.775 1291.65 322.087 1291.11 322.222L1285.92 323.52C1285.58 324.653 1285.12 325.737 1284.57 326.77L1287.32 331.353C1287.61 331.83 1287.73 332.39 1287.66 332.943C1287.59 333.496 1287.34 334.011 1286.95 334.405L1284.4 336.95C1284.01 337.344 1283.5 337.594 1282.94 337.662C1282.39 337.73 1281.83 337.612 1281.35 337.325L1276.77 334.575C1275.74 335.125 1274.65 335.575 1273.52 335.925L1272.22 341.107C1272.09 341.648 1271.77 342.128 1271.34 342.471C1270.9 342.814 1270.35 343 1269.8 343H1266.2C1265.65 343 1265.1 342.814 1264.66 342.471C1264.23 342.128 1263.91 341.648 1263.78 341.107L1262.48 335.925C1261.36 335.578 1260.27 335.126 1259.23 334.575L1254.65 337.325C1254.17 337.612 1253.61 337.73 1253.06 337.662C1252.5 337.594 1251.99 337.344 1251.6 336.95L1249.05 334.405C1248.66 334.011 1248.41 333.496 1248.34 332.943C1248.27 332.39 1248.39 331.83 1248.68 331.353L1251.42 326.77C1250.87 325.731 1250.42 324.643 1250.07 323.52L1244.89 322.222C1244.35 322.087 1243.87 321.775 1243.53 321.337C1243.19 320.898 1243 320.357 1243 319.8V316.205C1243 315.648 1243.19 315.106 1243.53 314.667C1243.87 314.228 1244.35 313.915 1244.89 313.78L1250.07 312.483C1250.42 311.349 1250.87 310.266 1251.42 309.233L1248.68 304.65C1248.39 304.172 1248.27 303.612 1248.34 303.059C1248.41 302.506 1248.66 301.992 1249.05 301.597L1251.6 299.05C1251.99 298.656 1252.5 298.406 1253.06 298.338C1253.61 298.27 1254.17 298.388 1254.65 298.675L1259.23 301.425C1260.26 300.875 1261.35 300.425 1262.48 300.075L1263.78 294.892C1263.91 294.352 1264.22 293.873 1264.66 293.53C1265.1 293.187 1265.64 293.001 1266.2 293H1269.8C1270.35 293 1270.89 293.186 1271.33 293.529C1271.77 293.872 1272.08 294.352 1272.22 294.892L1273.52 300.075C1274.65 300.425 1275.73 300.875 1276.77 301.425H1276.77ZM1268 325C1269.86 325 1271.64 324.263 1272.95 322.95C1274.26 321.637 1275 319.857 1275 318C1275 316.143 1274.26 314.363 1272.95 313.05C1271.64 311.737 1269.86 311 1268 311C1266.14 311 1264.36 311.737 1263.05 313.05C1261.74 314.363 1261 316.143 1261 318C1261 319.857 1261.74 321.637 1263.05 322.95C1264.36 324.263 1266.14 325 1268 325ZM1268 328C1265.35 328 1262.8 326.946 1260.93 325.071C1259.05 323.196 1258 320.652 1258 318C1258 315.348 1259.05 312.804 1260.93 310.929C1262.8 309.054 1265.35 308 1268 308C1270.65 308 1273.2 309.054 1275.07 310.929C1276.95 312.804 1278 315.348 1278 318C1278 320.652 1276.95 323.196 1275.07 325.071C1273.2 326.946 1270.65 328 1268 328Z" fill="white"/>
<path d="M426.833 771.087C427.081 771.087 427.327 771.139 427.555 771.238C427.782 771.337 427.987 771.482 428.156 771.664L428.162 771.669L428.168 771.676C429.424 773.002 430.848 774.65 431.945 776.312C433.092 778.049 433.667 779.485 433.667 780.455C433.667 784.51 430.532 787.657 426.833 787.657C423.134 787.657 420 784.51 420 780.455C420 779.484 420.575 778.049 421.722 776.312C422.819 774.65 424.242 773.002 425.498 771.676L425.504 771.669L425.511 771.664C425.68 771.482 425.885 771.337 426.112 771.238C426.34 771.139 426.585 771.087 426.833 771.087Z" stroke="white" stroke-width="4"/>
<path d="M412 534.539C412 534.048 412.177 533.608 412.505 533.247C412.657 533.072 412.843 532.934 413.052 532.84C413.261 532.746 413.487 532.7 413.715 532.704C414.194 532.704 414.623 532.885 414.951 533.247C415.278 533.608 415.455 534.022 415.455 534.539C415.455 535.03 415.278 535.443 414.951 535.779C414.793 535.944 414.604 536.075 414.397 536.164C414.189 536.254 413.966 536.3 413.74 536.3C413.515 536.3 413.292 536.254 413.084 536.164C412.876 536.075 412.688 535.944 412.53 535.779C412.359 535.625 412.223 535.434 412.131 535.219C412.04 535.005 411.995 534.773 412 534.539ZM416.993 534.539C416.993 534.048 417.17 533.608 417.497 533.247C417.649 533.072 417.836 532.934 418.045 532.84C418.254 532.746 418.48 532.7 418.708 532.704H426.852L421.103 526.811C420.933 526.662 420.796 526.475 420.705 526.265C420.613 526.055 420.568 525.826 420.574 525.596C420.574 525.105 420.75 524.692 421.103 524.33C421.456 523.968 421.86 523.787 422.339 523.787C422.818 523.787 423.221 523.968 423.574 524.33L429.298 530.197V521.901C429.298 521.41 429.475 520.97 429.828 520.608C430.181 520.247 430.584 520.066 431.088 520.066C431.568 520.066 431.971 520.247 432.299 520.608C432.627 520.97 432.803 521.384 432.803 521.901V530.249L438.577 524.304C438.93 523.942 439.334 523.761 439.788 523.761C440.242 523.761 440.67 523.942 441.023 524.304C441.326 524.666 441.477 525.08 441.477 525.571C441.477 526.062 441.326 526.475 441.023 526.785L435.274 532.678H443.419C443.873 532.678 444.276 532.859 444.604 533.221C444.932 533.582 445.108 533.996 445.108 534.513C445.108 534.978 444.932 535.392 444.604 535.728C444.451 535.891 444.267 536.022 444.063 536.11C443.859 536.199 443.64 536.245 443.419 536.245H435.274L441.049 542.163C441.351 542.473 441.502 542.887 441.502 543.378C441.502 543.869 441.351 544.282 441.049 544.644C440.696 545.006 440.267 545.187 439.813 545.187C439.359 545.187 438.93 545.006 438.603 544.644L432.828 538.7V547.074C432.828 547.565 432.652 548.004 432.324 548.34C431.996 548.676 431.593 548.857 431.114 548.857C430.644 548.858 430.192 548.673 429.853 548.34C429.682 548.179 429.547 547.983 429.456 547.765C429.364 547.547 429.319 547.311 429.323 547.074V538.751L423.6 544.618C423.246 544.98 422.843 545.161 422.364 545.161C421.885 545.161 421.481 544.98 421.128 544.618C420.775 544.256 420.599 543.843 420.599 543.352C420.599 542.861 420.775 542.473 421.128 542.137L426.928 536.219H418.758C418.279 536.219 417.876 536.038 417.548 535.702C417.366 535.573 417.219 535.399 417.122 535.195C417.024 534.991 416.98 534.765 416.993 534.539ZM417.018 547.048C417.018 546.582 417.195 546.143 417.548 545.807C417.85 545.445 418.254 545.264 418.733 545.264C419.212 545.264 419.615 545.445 419.968 545.807C420.322 546.169 420.498 546.582 420.498 547.048C420.498 547.513 420.322 547.952 419.968 548.288C419.615 548.65 419.212 548.831 418.733 548.831C418.254 548.831 417.85 548.65 417.548 548.288C417.378 548.133 417.243 547.941 417.151 547.727C417.06 547.513 417.015 547.281 417.018 547.048ZM417.018 521.952C417.018 521.487 417.195 521.048 417.548 520.712C417.85 520.35 418.254 520.169 418.733 520.169C419.212 520.169 419.615 520.35 419.968 520.712C420.322 521.074 420.498 521.487 420.498 521.952C420.498 522.65 420.322 522.857 419.968 523.219C419.615 523.581 419.212 523.761 418.733 523.761C418.254 523.761 417.85 523.581 417.548 523.219C417.381 523.055 417.248 522.859 417.157 522.641C417.066 522.423 417.019 522.189 417.018 521.952ZM429.248 552.217C429.248 551.751 429.424 551.338 429.777 551.002C430.13 550.666 430.534 550.485 431.038 550.485C431.517 550.485 431.921 550.666 432.248 551.002C432.576 551.338 432.753 551.751 432.753 552.217C432.753 552.708 432.576 553.147 432.248 553.483C431.921 553.819 431.517 554 431.038 554C430.568 554.001 430.116 553.816 429.777 553.483C429.605 553.323 429.469 553.128 429.378 552.909C429.286 552.691 429.242 552.454 429.248 552.217ZM429.248 516.783C429.248 516.292 429.424 515.853 429.777 515.517C430.13 515.181 430.534 515 431.038 515C431.517 515 431.921 515.181 432.248 515.517C432.487 515.763 432.65 516.075 432.716 516.416C432.782 516.756 432.748 517.109 432.618 517.429C432.489 517.75 432.27 518.024 431.988 518.217C431.707 518.411 431.377 518.514 431.038 518.515C430.568 518.516 430.116 518.331 429.777 517.998C429.609 517.846 429.475 517.659 429.384 517.45C429.292 517.24 429.246 517.013 429.248 516.783ZM441.528 547.048C441.528 546.582 441.704 546.143 442.057 545.807C442.36 545.445 442.763 545.264 443.242 545.264C443.721 545.264 444.125 545.445 444.478 545.807C444.831 546.169 445.007 546.582 445.007 547.048C445.007 547.513 444.831 547.952 444.478 548.288C444.125 548.65 443.721 548.831 443.242 548.831C442.763 548.831 442.36 548.65 442.057 548.288C441.887 548.133 441.752 547.941 441.661 547.727C441.569 547.513 441.524 547.281 441.528 547.048ZM441.528 521.952C441.528 521.487 441.704 521.048 442.057 520.712C442.36 520.35 442.763 520.169 443.242 520.169C443.721 520.169 444.125 520.35 444.478 520.712C444.831 521.074 445.007 521.487 445.007 521.952C445.007 522.65 444.831 522.857 444.478 523.219C444.125 523.581 443.721 523.761 443.242 523.761C442.763 523.761 442.36 523.581 442.057 523.219C441.89 523.055 441.757 522.859 441.666 522.641C441.575 522.423 441.528 522.189 441.528 521.952ZM446.571 534.539C446.571 534.048 446.747 533.608 447.075 533.247C447.403 532.885 447.831 532.704 448.311 532.704C448.764 532.704 449.168 532.885 449.496 533.247C449.823 533.608 450 534.022 450 534.539C450 535.004 449.823 535.417 449.496 535.753C449.174 536.082 448.739 536.266 448.285 536.266C447.832 536.266 447.396 536.082 447.075 535.753C446.915 535.596 446.788 535.408 446.702 535.199C446.615 534.99 446.57 534.766 446.571 534.539Z" fill="white"/>
<path fill-rule="evenodd" clip-rule="evenodd" d="M1121.28 524.441C1121.47 524.6 1121.63 524.795 1121.74 525.015C1121.85 525.235 1121.92 525.475 1121.94 525.722C1121.97 525.969 1121.94 526.218 1121.86 526.455C1121.79 526.691 1121.67 526.91 1121.51 527.1C1120.67 528.101 1120.46 529.095 1120.57 530.237C1120.7 531.498 1121.2 532.849 1121.83 534.502L1121.87 534.615C1122.45 536.13 1123.13 537.931 1123.31 539.747C1123.5 541.725 1123.1 543.778 1121.51 545.68C1121.35 545.875 1121.16 546.037 1120.94 546.156C1120.72 546.275 1120.48 546.349 1120.23 546.373C1119.98 546.397 1119.73 546.371 1119.49 546.296C1119.25 546.222 1119.03 546.1 1118.84 545.939C1118.65 545.777 1118.49 545.579 1118.37 545.356C1118.26 545.133 1118.19 544.889 1118.17 544.639C1118.15 544.389 1118.18 544.137 1118.26 543.899C1118.34 543.661 1118.47 543.441 1118.63 543.252C1119.47 542.251 1119.68 541.254 1119.57 540.112C1119.44 538.854 1118.94 537.503 1118.31 535.85L1118.27 535.737C1117.69 534.22 1117.01 532.421 1116.83 530.605C1116.64 528.625 1117.04 526.572 1118.63 524.67C1118.95 524.288 1119.41 524.049 1119.91 524.007C1120.41 523.964 1120.9 524.121 1121.28 524.443V524.441ZM1114.24 529.422C1114.56 529.039 1114.71 528.544 1114.67 528.045C1114.63 527.546 1114.39 527.085 1114.01 526.763C1113.63 526.441 1113.13 526.284 1112.64 526.327C1112.14 526.37 1111.68 526.609 1111.36 526.992C1109.87 528.766 1109.33 530.517 1109.57 532.273C1109.77 533.787 1110.56 535.098 1111.12 536.034L1111.19 536.147C1111.84 537.237 1112.21 537.916 1112.3 538.588C1112.37 539.083 1112.3 539.798 1111.36 540.927C1111.04 541.31 1110.88 541.806 1110.92 542.304C1110.97 542.803 1111.21 543.264 1111.59 543.587C1111.97 543.909 1112.46 544.066 1112.96 544.023C1113.46 543.98 1113.92 543.741 1114.24 543.358C1115.72 541.584 1116.27 539.835 1116.03 538.079C1115.82 536.562 1115.04 535.254 1114.48 534.318L1114.41 534.205C1113.76 533.116 1113.38 532.436 1113.29 531.764C1113.22 531.269 1113.29 530.552 1114.24 529.422ZM1135.32 538.052C1134.96 537.729 1134.48 537.563 1133.99 537.587C1133.5 537.61 1133.05 537.823 1132.71 538.18C1132.38 538.536 1132.2 539.009 1132.2 539.498C1132.21 539.987 1132.41 540.455 1132.75 540.802C1133.59 541.591 1134.11 542.653 1134.24 543.798C1134.2 545.066 1133.19 546.628 1130.66 547.99C1128.15 549.336 1124.56 550.229 1120.5 550.229C1116.43 550.229 1112.85 549.341 1110.34 548C1107.81 546.644 1106.8 545.086 1106.76 543.818C1106.88 542.665 1107.41 541.593 1108.25 540.802C1108.61 540.457 1108.81 539.986 1108.82 539.491C1108.83 538.996 1108.65 538.517 1108.31 538.156C1107.97 537.795 1107.51 537.582 1107.02 537.563C1106.52 537.543 1106.04 537.719 1105.68 538.052C1104.14 539.504 1103.19 541.475 1103.01 543.587L1103 543.743C1103 547.094 1105.5 549.685 1108.57 551.331C1111.72 553.016 1115.94 554 1120.5 554C1125.06 554 1129.28 553.009 1132.43 551.316C1135.5 549.665 1138 547.066 1138 543.72C1137.86 541.559 1136.9 539.533 1135.32 538.052H1135.32ZM1129.34 529.188C1129.59 528.761 1129.66 528.253 1129.54 527.773C1129.42 527.293 1129.11 526.88 1128.69 526.623C1128.27 526.365 1127.77 526.284 1127.29 526.397C1126.81 526.51 1126.39 526.807 1126.13 527.226C1125.05 529.002 1124.72 530.64 1124.87 532.202C1125.01 533.626 1125.55 534.877 1125.97 535.838L1126.01 535.928C1126.47 536.988 1126.77 537.735 1126.85 538.517C1126.92 539.204 1126.81 540.034 1126.12 541.164C1125.86 541.592 1125.79 542.105 1125.9 542.591C1126.02 543.077 1126.33 543.497 1126.75 543.757C1127.18 544.016 1127.69 544.096 1128.18 543.977C1128.66 543.858 1129.08 543.551 1129.34 543.124C1130.41 541.35 1130.74 539.712 1130.59 538.15C1130.45 536.726 1129.91 535.473 1129.5 534.514L1129.46 534.424C1129 533.362 1128.69 532.615 1128.61 531.832C1128.55 531.146 1128.65 530.318 1129.34 529.188H1129.34Z" fill="white"/>
<path d="M1161 333.125C1161 330.009 1162.24 327.02 1164.44 324.816C1166.65 322.613 1169.63 321.375 1172.75 321.375H1196.25C1199.37 321.375 1202.35 322.613 1204.56 324.816C1206.76 327.02 1208 330.009 1208 333.125C1208 334.683 1207.38 336.177 1206.28 337.279C1205.18 338.381 1203.68 339 1202.12 339H1166.88C1165.32 339 1163.82 338.381 1162.72 337.279C1161.62 336.177 1161 334.683 1161 333.125Z" stroke="white" stroke-width="5" stroke-linejoin="round"/>
<path d="M1184.5 311.625C1189.37 311.625 1193.31 307.68 1193.31 302.812C1193.31 297.945 1189.37 294 1184.5 294C1179.63 294 1175.69 297.945 1175.69 302.812C1175.69 307.68 1179.63 311.625 1184.5 311.625Z" stroke="white" stroke-width="5"/>
</g>
<defs>
<clipPath id="clip0_27_103">
<rect x="208" y="228" width="1133" height="744" rx="10" fill="white"/>
</clipPath>
</defs>
</svg>
